<svg width="56" height="50" viewBox="0 0 56 50" fill="none" xmlns="http://www.w3.org/2000/svg">
<path d="M7 0.5H49C52.8281 0.5 56 3.67188 56 7.5V14.5C56 18.4375 52.8281 21.5 49 21.5H7C3.0625 21.5 0 18.4375 0 14.5V7.5C0 3.67188 3.0625 0.5 7 0.5ZM37.625 8.375C36.0938 8.375 35 9.57812 35 11C35 12.5312 36.0938 13.625 37.625 13.625C39.0469 13.625 40.25 12.5312 40.25 11C40.25 9.57812 39.0469 8.375 37.625 8.375ZM42.875 11C42.875 12.5312 43.9688 13.625 45.5 13.625C46.9219 13.625 48.125 12.5312 48.125 11C48.125 9.57812 46.9219 8.375 45.5 8.375C43.9688 8.375 42.875 9.57812 42.875 11ZM7 28.5H49C52.8281 28.5 56 31.6719 56 35.5V42.5C56 46.4375 52.8281 49.5 49 49.5H7C3.0625 49.5 0 46.4375 0 42.5V35.5C0 31.6719 3.0625 28.5 7 28.5ZM37.625 36.375C36.0938 36.375 35 37.5781 35 39C35 40.5312 36.0938 41.625 37.625 41.625C39.0469 41.625 40.25 40.5312 40.25 39C40.25 37.5781 39.0469 36.375 37.625 36.375ZM43.75 39C43.75 40.5312 44.8438 41.625 46.375 41.625C47.7969 41.625 49 40.5312 49 39C49 37.5781 47.7969 36.375 46.375 36.375C44.8438 36.375 43.75 37.5781 43.75 39Z" fill="white"/>
</svg>
