<svg width="69" height="50" viewBox="0 0 69 50" fill="none" xmlns="http://www.w3.org/2000/svg">
<path d="M5.92188 1.70312C6.25 0.9375 7.01562 0.609375 7.78125 0.71875L34.5781 4L61.2656 0.71875C62.0312 0.609375 62.7969 1.04688 63.125 1.70312L67.6094 10.7812C68.5938 12.75 67.6094 15.1562 65.5312 15.7031L47.5938 20.8438C46.0625 21.2812 44.4219 20.625 43.6562 19.2031L34.5781 4L25.3906 19.2031C24.625 20.625 22.9844 21.2812 21.4531 20.8438L3.625 15.7031C1.4375 15.1562 0.453125 12.75 1.4375 10.7812L5.92188 1.70312ZM34.6875 11L40.7031 21.0625C42.2344 23.7969 45.5156 25 48.5781 24.125L62.5781 20.1875V38.4531C62.5781 40.8594 60.9375 42.9375 58.5312 43.5938L36.2188 49.1719C35.125 49.3906 33.9219 49.3906 32.8281 49.1719L10.5156 43.5938C8.21875 42.9375 6.57812 40.8594 6.57812 38.4531V20.1875L20.4688 24.125C23.5312 25 26.8125 23.7969 28.4531 21.0625L34.3594 11H34.6875Z" fill="white"/>
</svg>
