<svg width="56" height="56" viewBox="0 0 56 56" fill="none" xmlns="http://www.w3.org/2000/svg">
<path d="M35.7656 9.40625L42 7L44.2969 0.875C44.4062 0.328125 44.9531 0 45.5 0C45.9375 0 46.4844 0.328125 46.5938 0.875L49 7L55.125 9.40625C55.6719 9.51562 56 10.0625 56 10.5C56 11.0469 55.6719 11.5938 55.125 11.7031L49 14L46.5938 20.2344C46.4844 20.6719 45.9375 21 45.5 21C44.9531 21 44.4062 20.6719 44.2969 20.2344L42 14L35.7656 11.7031C35.3281 11.5938 35 11.0469 35 10.5C35 10.0625 35.3281 9.51562 35.7656 9.40625ZM22.4219 8.09375L28.1094 20.5625L40.5781 26.25C41.2344 26.5781 41.6719 27.2344 41.6719 27.8906C41.6719 28.5469 41.2344 29.2031 40.5781 29.4219L28.1094 35.2188L22.4219 47.6875C22.0938 48.3438 21.4375 48.7812 20.7812 48.7812C20.125 48.7812 19.4688 48.3438 19.25 47.6875L13.4531 35.2188L0.984375 29.5312C0.328125 29.2031 0 28.5469 0 27.8906C0 27.2344 0.328125 26.5781 0.984375 26.25L13.4531 20.5625L19.25 8.09375C19.4688 7.4375 20.125 7 20.7812 7C21.4375 7 22.0938 7.4375 22.4219 8.09375ZM42 42L44.2969 35.875C44.4062 35.3281 44.9531 35 45.5 35C45.9375 35 46.4844 35.3281 46.5938 35.875L49 42L55.125 44.4062C55.6719 44.5156 56 45.0625 56 45.5C56 46.0469 55.6719 46.5938 55.125 46.7031L49 49L46.5938 55.2344C46.4844 55.6719 45.9375 56 45.5 56C44.9531 56 44.4062 55.6719 44.2969 55.2344L42 49L35.7656 46.7031C35.3281 46.5938 35 46.0469 35 45.5C35 45.0625 35.3281 44.5156 35.7656 44.4062L42 42Z" fill="white"/>
</svg>
