<svg width="20" height="20" viewBox="0 0 20 20" fill="none" xmlns="http://www.w3.org/2000/svg">
<path d="M10 1.25C13.1992 1.25 16.1523 2.97266 17.7695 5.75C19.3867 8.5625 19.3867 11.9727 17.7695 14.75C16.1523 17.5625 13.1992 19.25 10 19.25C6.76562 19.25 3.8125 17.5625 2.19531 14.75C0.578125 11.9727 0.578125 8.5625 2.19531 5.75C3.8125 2.97266 6.76562 1.25 10 1.25ZM9.15625 5.46875V10.25C9.15625 10.5312 9.29688 10.8125 9.50781 10.9531L12.8828 13.2031C13.2695 13.4844 13.7969 13.3789 14.0781 12.9922C14.3242 12.6055 14.2188 12.0781 13.832 11.7969L10.8438 9.82812V5.46875C10.8438 5.01172 10.457 4.625 10 4.625C9.50781 4.625 9.15625 5.01172 9.15625 5.46875Z" fill="#8900E1"/>
</svg>
