<svg width="20" height="20" viewBox="0 0 20 20" fill="none" xmlns="http://www.w3.org/2000/svg">
<path d="M6.76562 2.12891L8.17188 5.50391C8.41797 6.06641 8.27734 6.73438 7.78516 7.12109L6.0625 8.5625C7.22266 11.0234 9.22656 13.0273 11.6875 14.1875L13.1289 12.4648C13.5156 11.9727 14.1836 11.832 14.7461 12.0781L18.1211 13.4844C18.7891 13.7305 19.1055 14.4688 18.9297 15.1367L18.0859 18.2305C17.9102 18.8281 17.3828 19.25 16.75 19.25C8.03125 19.25 1 12.2188 1 3.5C1 2.86719 1.42188 2.33984 2.01953 2.16406L5.11328 1.32031C5.78125 1.14453 6.51953 1.46094 6.76562 2.12891Z" fill="#8900E1"/>
</svg>
