<svg width="308" height="193" viewBox="0 0 308 193" fill="none" xmlns="http://www.w3.org/2000/svg">
<g opacity="0.2" clip-path="url(#clip0_1_87)">
<path d="M175.644 91.6531C176.682 92.5873 178.382 94.1431 180.463 96.1092C182.536 98.1155 185.017 100.508 187.658 103.063C192.934 108.231 199.103 113.968 204.347 118.049C210.361 122.805 217.04 127.005 224.423 129.794L225.808 130.312C226.269 130.485 226.752 130.605 227.215 130.752L230.047 131.596C230.982 131.911 231.963 132.054 232.924 132.266L235.816 132.855L238.742 133.214C239.716 133.309 240.689 133.492 241.674 133.496L244.611 133.615C245.097 133.623 245.593 133.67 246.08 133.653L247.543 133.601C255.356 133.415 263.028 131.922 270.352 129.597C277.673 127.235 284.641 124.039 291.262 120.324C293.352 119.194 296.098 117.532 298.187 116.001C300.247 114.413 301.656 112.986 301.089 112.264C299.869 110.731 294.961 112.786 287.948 116.584C279.437 121.153 270.417 124.901 261.012 126.98C259.846 127.286 258.66 127.452 257.474 127.661C256.293 127.856 255.112 128.094 253.913 128.185C252.72 128.304 251.535 128.445 250.344 128.539L246.761 128.652C241.999 128.637 237.24 128.169 232.677 126.97C225.977 125.301 219.743 122.183 213.946 118.363C208.141 114.522 202.813 109.9 197.631 105.076C192.455 100.238 187.447 95.1189 182.162 90.1829C176.868 85.2693 171.346 80.4633 165.188 76.3982C162.423 74.5872 159.557 72.8738 156.545 71.432C153.529 69.9974 150.394 68.7674 147.158 67.8264C143.862 66.923 140.474 66.3917 137.083 66.2077C133.685 66.0827 130.277 66.3199 126.92 66.901C123.574 67.5214 120.286 68.55 117.14 69.9518C113.996 71.3538 111.071 73.3007 108.464 75.6225C107.836 76.2367 107.16 76.7963 106.582 77.4574L104.872 79.4678C103.866 80.9128 102.812 82.3468 102.079 83.9569C100.407 87.0828 99.514 90.5214 98.9925 93.8859C98.5196 97.0695 98.4035 100.234 98.4495 103.344C98.4877 104.905 98.5026 106.395 98.6864 108.112C98.869 109.767 99.173 111.403 99.6754 113.024C100.17 114.642 100.824 116.256 101.799 117.81C102.766 119.343 104.099 120.896 106.038 121.913C106.988 122.427 108.082 122.738 109.174 122.865C109.719 122.941 110.255 122.891 110.79 122.885C111.329 122.871 111.85 122.728 112.387 122.634C112.916 122.538 113.433 122.28 113.947 122.09C114.456 121.872 114.914 121.545 115.392 121.254C115.832 120.928 116.232 120.552 116.636 120.186C116.973 119.792 117.323 119.386 117.633 118.973C118.806 117.291 119.424 115.494 119.808 113.758C120.177 112.015 120.293 110.291 120.255 108.582C120.21 106.887 120.004 105.161 119.616 103.517C119.212 101.998 118.868 100.459 118.411 98.9612C116.613 92.9388 114.046 87.1498 110.814 81.7675C105.247 72.4726 97.7045 64.3891 88.8449 58.19C79.9867 51.9653 69.7415 47.8144 59.1861 45.8578C54.2253 44.9053 48.1516 43.9832 42.5768 44.1396C42.0023 44.1561 41.3769 44.1691 40.7155 44.1847C40.0541 44.2003 39.3681 44.2757 38.6478 44.3281C37.9351 44.3837 37.1938 44.4449 36.4375 44.5C35.6856 44.5656 34.9272 44.6897 34.1704 44.7883C33.4107 44.8943 32.6509 45.0003 31.9092 45.105C31.17 45.2457 30.4458 45.3926 29.7427 45.5307C29.0365 45.6762 28.3619 45.8087 27.7202 45.9459C27.0918 46.1148 26.4919 46.278 25.9416 46.4266C24.9987 46.7017 24.0276 46.9388 23.0724 47.2437C22.1247 47.5516 21.1756 47.8417 20.2449 48.0868C19.1703 48.3424 18.2309 48.7149 17.3762 49.0089C16.5229 49.3208 15.76 49.5826 15.1153 49.8758C13.8346 50.4831 12.9312 51.0014 12.4095 51.4411C11.3585 52.3176 11.8222 52.8666 13.5591 53.2504C14.3176 53.4232 13.9073 54.2495 15.8977 53.7425C15.9758 53.7223 16.1427 53.6776 16.2178 53.6649C17.7488 53.3615 19.2811 53.0761 20.7668 52.6493C22.286 52.3323 23.7598 51.892 25.2706 51.5104C28.283 50.7697 31.3274 49.9724 34.4661 49.6243C49.793 47.715 65.7655 50.5763 79.1995 58.1361C92.6279 65.7111 103.502 77.725 109.864 91.7474C111.815 96.0428 113.364 100.549 114.433 105.118C114.898 107.213 115.019 109.463 114.764 111.566C114.623 112.608 114.389 113.62 114.05 114.528C113.687 115.409 113.217 116.167 112.666 116.7C112.115 117.232 111.505 117.548 110.73 117.648C109.96 117.758 109.219 117.689 108.572 117.396C107.259 116.768 106.004 115.151 105.23 113.191C104.412 111.256 103.953 109.042 103.776 106.865L103.723 106.04L103.69 105.144L103.646 103.363C103.628 102.177 103.648 101.007 103.69 99.8455C103.914 94.7436 104.998 89.8649 107.226 85.6232L107.188 85.6949C108.448 83.5253 109.988 81.5056 111.916 79.8558C112.802 78.955 113.904 78.274 114.9 77.4883L116.543 76.4891C116.821 76.324 117.087 76.1455 117.368 75.9909L119.881 74.7474L121.598 74.0757L122.464 73.7339L123.36 73.466L125.146 72.9269C127.577 72.366 130.055 71.885 132.582 71.7913C135.099 71.5973 137.634 71.76 140.138 72.0407C141.371 72.2695 142.633 72.3876 143.845 72.7298L145.669 73.1764L148.405 74.0412L149.303 74.3845L151.093 75.0613C152.259 75.6029 153.451 76.0585 154.584 76.6569L156.299 77.5204L157.974 78.4548C159.097 79.0572 160.174 79.7714 161.265 80.4307C165.579 83.1854 169.597 86.3422 173.431 89.6066C174.031 90.0984 174.773 90.884 175.644 91.6531Z" fill="#8900E1"/>
<path d="M295.856 125.63C295.755 126.169 295.418 128.081 295.069 129.278C294.286 132.051 293.354 134.756 292.69 137.608C292.584 138.053 292.284 138.76 293.742 139.407C295.258 140.077 296.363 139.968 296.646 139.17C297.31 137.224 297.655 135.185 298.532 133.351C299.83 130.645 300.312 127.679 300.897 124.779C301.149 123.465 301.347 122.151 301.484 120.819C301.558 120.157 301.611 119.492 301.679 118.826C301.724 118.143 301.797 117.54 301.839 116.772C301.874 116.093 301.886 115.343 301.734 114.472C301.654 114.035 301.526 113.57 301.308 113.1C301.096 112.631 300.779 112.142 300.405 111.736C299.537 110.807 298.44 110.34 297.579 110.115C296.686 109.876 295.948 109.816 295.297 109.769C293.053 109.623 290.821 110.06 288.649 110.408C288.136 110.486 287.481 110.263 286.92 110.367C286.452 110.448 285.677 110.587 285.238 110.802C285.045 110.898 284.861 111.013 284.657 110.99C283.708 110.904 283.608 111.519 284.28 113.237C284.429 113.618 284.463 114.143 284.721 114.371C284.731 114.383 284.755 114.401 284.765 114.412C285.578 115.364 286.071 114.76 286.688 114.686C289.692 114.338 292.767 114.262 295.728 114.59C296.579 114.674 297.104 114.898 297.157 115.011C297.212 115.08 297.256 115.159 297.303 115.377C297.344 115.592 297.35 115.892 297.308 116.255C297.264 116.657 297.002 117.09 297.105 117.636L297.101 117.627C297.008 118.167 296.87 118.706 296.818 119.24C296.651 121.292 296.204 123.395 295.975 125.359C295.97 125.426 295.879 125.518 295.856 125.63Z" fill="#8900E1"/>
</g>
<defs>
<clipPath id="clip0_1_87">
<rect width="297" height="85" fill="white" transform="matrix(0.924609 0.380918 0.380918 -0.924609 0.630859 79.0254)"/>
</clipPath>
</defs>
</svg>
