<svg width="56" height="50" viewBox="0 0 56 50" fill="none" xmlns="http://www.w3.org/2000/svg">
<path d="M49 0.5C52.8281 0.5 56 3.67188 56 7.5V14.5C56 18.4375 52.8281 21.5 49 21.5H7C3.0625 21.5 0 18.4375 0 14.5V7.5C0 3.67188 3.0625 0.5 7 0.5H49ZM52.5 14.5V7.5C52.5 5.64062 50.8594 4 49 4H7C5.03125 4 3.5 5.64062 3.5 7.5V14.5C3.5 16.4688 5.03125 18 7 18H49C50.8594 18 52.5 16.4688 52.5 14.5ZM45.5 8.375C46.9219 8.375 48.125 9.57812 48.125 11C48.125 12.5312 46.9219 13.625 45.5 13.625C43.9688 13.625 42.875 12.5312 42.875 11C42.875 9.57812 43.9688 8.375 45.5 8.375ZM35 8.375C36.4219 8.375 37.625 9.57812 37.625 11C37.625 12.5312 36.4219 13.625 35 13.625C33.4688 13.625 32.375 12.5312 32.375 11C32.375 9.57812 33.4688 8.375 35 8.375ZM49 28.5C52.8281 28.5 56 31.6719 56 35.5V42.5C56 46.4375 52.8281 49.5 49 49.5H7C3.0625 49.5 0 46.4375 0 42.5V35.5C0 31.6719 3.0625 28.5 7 28.5H49ZM52.5 42.5V35.5C52.5 33.6406 50.8594 32 49 32H7C5.03125 32 3.5 33.6406 3.5 35.5V42.5C3.5 44.4688 5.03125 46 7 46H49C50.8594 46 52.5 44.4688 52.5 42.5ZM45.5 36.375C46.9219 36.375 48.125 37.5781 48.125 39C48.125 40.5312 46.9219 41.625 45.5 41.625C43.9688 41.625 42.875 40.5312 42.875 39C42.875 37.5781 43.9688 36.375 45.5 36.375ZM35 36.375C36.4219 36.375 37.625 37.5781 37.625 39C37.625 40.5312 36.4219 41.625 35 41.625C33.4688 41.625 32.375 40.5312 32.375 39C32.375 37.5781 33.4688 36.375 35 36.375Z" fill="#6D6D6D"/>
</svg>
