<svg width="54" height="56" viewBox="0 0 54 56" fill="none" xmlns="http://www.w3.org/2000/svg">
<path d="M24.266 0.874756C26.016 0.218506 27.9847 0.218506 29.7347 0.874756L48.9847 9.07788C51.391 10.1716 53.2504 12.4685 53.2504 15.3123C53.141 26.2498 48.6566 46.0466 29.8441 55.1248C27.9847 55.9998 25.9066 55.9998 24.0472 55.1248C5.23474 46.0466 0.750366 26.2498 0.750366 15.3123C0.640991 12.4685 2.50037 10.1716 4.90662 9.07788L24.266 0.874756ZM28.3129 4.15601C27.4379 3.71851 26.4535 3.71851 25.5785 4.15601L6.21912 12.3591C5.01599 12.7966 4.14099 13.9998 4.25037 15.3123C4.25037 25.5935 8.51599 43.7498 25.5785 51.9529C26.4535 52.3904 27.4379 52.3904 28.3129 51.9529C45.3754 43.7498 49.641 25.5935 49.7504 15.3123C49.7504 13.9998 48.8754 12.7966 47.6722 12.3591L28.3129 4.15601Z" fill="#6D6D6D"/>
</svg>
