<svg width="56" height="56" viewBox="0 0 56 56" fill="none" xmlns="http://www.w3.org/2000/svg">
<path d="M26.1406 0.65625C27.3438 0.21875 28.5469 0.21875 29.75 0.65625L52.5 8.96875C54.5781 9.73438 56 11.7031 56 13.8906V42.2188C56 44.4062 54.5781 46.375 52.5 47.1406L29.75 55.4531C28.5469 55.8906 27.3438 55.8906 26.1406 55.4531L3.39062 47.1406C1.3125 46.375 0 44.4062 0 42.2188V13.8906C0 11.7031 1.3125 9.73438 3.39062 8.96875L26.1406 0.65625ZM28.5469 3.9375C28.1094 3.71875 27.7812 3.71875 27.3438 3.9375L4.8125 12.1406L28 21.2188L51.0781 12.1406L28.5469 3.9375ZM4.59375 43.8594L26.25 51.8438V24.2812L3.5 15.4219V42.2188C3.5 42.9844 3.9375 43.6406 4.59375 43.8594ZM29.75 51.8438L51.2969 43.8594C51.9531 43.6406 52.5 42.9844 52.5 42.2188V15.4219L29.75 24.2812V51.8438Z" fill="#6D6D6D"/>
</svg>
