<svg width="56" height="50" viewBox="0 0 56 50" fill="none" xmlns="http://www.w3.org/2000/svg">
<path d="M47.25 0.5C48.125 0.5 49 1.375 49 2.25V7.5H54.25C55.125 7.5 56 8.375 56 9.25C56 10.2344 55.125 11 54.25 11H49V16.25C49 17.2344 48.125 18 47.25 18C46.2656 18 45.5 17.2344 45.5 16.25V11H40.25C39.2656 11 38.5 10.2344 38.5 9.25C38.5 8.375 39.2656 7.5 40.25 7.5H45.5V2.25C45.5 1.375 46.2656 0.5 47.25 0.5ZM47.25 32C48.125 32 49 32.875 49 33.75V39H54.25C55.125 39 56 39.875 56 40.75C56 41.7344 55.125 42.5 54.25 42.5H49V47.75C49 48.7344 48.125 49.5 47.25 49.5C46.2656 49.5 45.5 48.7344 45.5 47.75V42.5H40.25C39.2656 42.5 38.5 41.7344 38.5 40.75C38.5 39.875 39.2656 39 40.25 39H45.5V33.75C45.5 32.875 46.2656 32 47.25 32ZM13.4531 32.2188L0.984375 26.5312C0.328125 26.2031 0 25.5469 0 24.8906C0 24.2344 0.328125 23.5781 0.984375 23.25L13.4531 17.5625L19.25 5.09375C19.4688 4.4375 20.125 4 20.7812 4C21.4375 4 22.0938 4.4375 22.4219 5.09375L28.1094 17.5625L40.5781 23.25C41.2344 23.5781 41.6719 24.2344 41.6719 24.8906C41.6719 25.5469 41.2344 26.2031 40.5781 26.5312L28.1094 32.2188L22.4219 44.6875C22.0938 45.3438 21.4375 45.7812 20.7812 45.7812C20.125 45.7812 19.4688 45.3438 19.25 44.6875L13.4531 32.2188ZM5.90625 24.8906L14.875 29.0469C15.6406 29.375 16.2969 30.0312 16.625 30.7969L20.7812 39.7656L24.9375 30.7969C25.2656 30.0312 25.9219 29.375 26.6875 29.0469L35.6562 24.8906L26.6875 20.7344C25.9219 20.4062 25.2656 19.75 24.9375 18.9844L20.7812 10.0156L16.625 18.9844C16.2969 19.75 15.6406 20.4062 14.875 20.7344L5.90625 24.8906Z" fill="#6D6D6D"/>
</svg>
